<svg width="330" height="80" viewBox="0 0 330 80" fill="none" xmlns="http://www.w3.org/2000/svg">
<path d="M329.78 79.32V10.33L316.27 27.62V49.02L306.27 62.52H316.27V79.32H329.78Z" fill="#DEDC00"/>
<path d="M316.27 49.02L306.27 62.52H275.39V48.45L312.04 0H329.4L291.84 49.23L316.27 49.02Z" fill="url(#paint0_radial_1_52)"/>
<path d="M257.03 54.72L277.43 79.32H263.03L242.72 54.72H257.03Z" fill="#DEDC00"/>
<path d="M229.72 36.31L257.52 9.31H273.42C254.02 28.11 239.45 42.25 229.72 51.71V79.31H218.62V9.31H229.72V36.31Z" fill="#DEDC00"/>
<path d="M208.62 79.32H190.82L162.02 20.71H150.92V9.31H168.72L197.62 67.92V9.31H208.62V79.32Z" fill="#DEDC00"/>
<path d="M162.02 39.11H150.92V79.31H162.02V39.11Z" fill="#DEDC00"/>
<path d="M140.92 79.32H129.82V9.31H140.92V79.32Z" fill="#DEDC00"/>
<path d="M119.81 79.32H68.8V9.31H79.9V68.22H119.8V79.32H119.81Z" fill="#DEDC00"/>
<path d="M38.41 54.72L58.81 79.32H44.41L24.11 54.72H38.41Z" fill="url(#paint1_radial_1_52)"/>
<path d="M11.1 36.31L38.9 9.31H54.8C35.41 28.11 20.84 42.25 11.1 51.72V79.32H0V9.31H11.1V36.31Z" fill="url(#paint2_radial_1_52)"/>
<defs>
<radialGradient id="paint0_radial_1_52" cx="0" cy="0" r="1" gradientUnits="userSpaceOnUse" gradientTransform="translate(302.39 31.26) scale(29.21 29.21)">
<stop offset="0.61" stop-color="#0092B7" stop-opacity="0.95"/>
<stop offset="1" stop-color="#008CAD"/>
</radialGradient>
<radialGradient id="paint1_radial_1_52" cx="0" cy="0" r="1" gradientUnits="userSpaceOnUse" gradientTransform="translate(41.46 67.02) scale(15.04)">
<stop offset="0.61" stop-color="#0092B7" stop-opacity="0.95"/>
<stop offset="1" stop-color="#008CAD"/>
</radialGradient>
<radialGradient id="paint2_radial_1_52" cx="0" cy="0" r="1" gradientUnits="userSpaceOnUse" gradientTransform="translate(27.41 44.32) scale(31.43)">
<stop offset="0.61" stop-color="#0092B7" stop-opacity="0.95"/>
<stop offset="1" stop-color="#008CAD"/>
</radialGradient>
</defs>
</svg>
